<?xml version="1.0" standalone="no"?>
<!DOCTYPE svg PUBLIC "-//W3C//DTD SVG 20010904//EN"
 "http://www.w3.org/TR/2001/REC-SVG-20010904/DTD/svg10.dtd">
<svg version="1.0" xmlns="http://www.w3.org/2000/svg"
 width="714.000000pt" height="349.000000pt" viewBox="0 0 714.000000 349.000000"
 preserveAspectRatio="xMidYMid meet">

<g transform="translate(0.000000,349.000000) scale(0.100000,-0.100000)"
fill="#000000" stroke="none">
<path d="M3391 3438 c-86 -149 -221 -589 -363 -1183 l-33 -140 -60 -13 c-38
-8 -107 -11 -185 -9 -77 2 -110 1 -85 -4 52 -10 216 -10 278 0 26 4 47 5 47 2
-1 -20 -56 -248 -62 -257 -4 -6 -43 -14 -87 -17 -86 -7 -170 -26 -258 -59 -49
-18 -54 -23 -51 -46 5 -45 44 -56 108 -31 50 19 147 41 234 53 l38 5 -6 -32
c-65 -324 -66 -339 -14 -345 36 -4 49 18 59 100 5 40 17 118 27 173 l17 100
47 3 c131 8 329 -56 368 -120 38 -63 23 -119 -59 -213 -100 -117 -123 -200
-76 -280 13 -23 69 -81 124 -129 94 -81 102 -86 146 -86 29 0 44 4 40 10 -4 6
-46 45 -93 86 -116 100 -142 136 -142 191 0 55 16 86 81 160 145 164 128 297
-52 388 -67 35 -185 65 -282 73 -45 4 -82 12 -81 17 1 6 14 71 29 145 l27 136
81 29 c158 58 308 151 650 403 244 180 393 274 567 361 141 70 294 130 305
119 2 -2 -81 -63 -184 -136 -220 -155 -238 -171 -221 -202 6 -11 25 -29 41
-39 36 -22 36 -22 -56 -49 -79 -24 -135 -55 -135 -75 0 -19 30 -45 68 -58 18
-6 32 -15 32 -19 0 -4 -37 -18 -82 -29 -212 -56 -224 -62 -191 -90 12 -10 54
-28 95 -41 40 -13 77 -26 81 -30 13 -11 -128 -66 -215 -84 -42 -9 -98 -16
-123 -16 -32 0 -45 -4 -45 -14 0 -23 101 -64 243 -101 150 -37 152 -27 -18
-91 -104 -38 -102 -43 5 -14 120 33 200 61 200 70 0 5 -26 13 -57 19 -120 23
-223 50 -270 71 l-48 23 100 18 c127 23 254 63 289 90 25 20 26 23 11 39 -9 9
-50 27 -93 40 -42 12 -81 25 -86 28 -5 3 53 22 128 43 76 21 151 43 168 50 31
13 33 32 2 38 -38 7 -115 44 -111 54 2 6 61 29 133 52 71 22 128 44 127 49 -1
4 -26 22 -55 40 -29 17 -53 37 -53 43 0 7 41 36 90 64 219 125 407 262 446
325 30 49 20 64 -40 64 -88 0 -248 -58 -482 -175 -250 -125 -362 -201 -706
-477 -99 -80 -224 -174 -279 -211 -102 -68 -290 -164 -300 -154 -16 16 237
960 296 1102 l21 50 -6 -65 c-3 -36 -16 -111 -30 -168 -39 -162 -33 -183 51
-168 l34 7 -35 -73 c-53 -109 -43 -140 35 -118 18 5 36 8 38 5 2 -2 -30 -53
-72 -114 -42 -61 -76 -115 -76 -121 0 -17 28 -12 81 16 28 14 54 23 57 19 9
-8 -64 -79 -145 -142 -40 -31 -73 -58 -73 -60 0 -8 59 28 116 70 65 49 164
149 164 166 0 17 -34 13 -91 -9 l-52 -21 15 23 c8 13 45 69 82 124 36 56 66
107 66 112 0 7 -18 3 -42 -8 -109 -49 -115 -1 -17 124 22 27 39 53 39 59 0 6
-26 8 -71 4 -62 -5 -70 -4 -65 10 22 57 67 251 77 332 10 80 10 104 -2 141
-21 67 -49 67 -88 -2z"/>
<path d="M2508 2123 c7 -3 16 -2 19 1 4 3 -2 6 -13 5 -11 0 -14 -3 -6 -6z"/>
<path d="M2548 2113 c7 -3 16 -2 19 1 4 3 -2 6 -13 5 -11 0 -14 -3 -6 -6z"/>
<path d="M2588 2103 c6 -2 18 -2 25 0 6 3 1 5 -13 5 -14 0 -19 -2 -12 -5z"/>
<path d="M3848 1913 c7 -3 16 -2 19 1 4 3 -2 6 -13 5 -11 0 -14 -3 -6 -6z"/>
<path d="M2000 1090 c-53 -18 -110 -66 -110 -93 0 -59 94 -72 244 -33 55 14
101 24 104 22 2 -3 -7 -20 -21 -38 -32 -43 -71 -122 -88 -176 -11 -37 -20 -47
-58 -65 -62 -30 -88 -75 -72 -127 13 -43 40 -65 104 -81 35 -10 48 -20 67 -53
102 -178 330 -311 596 -347 331 -44 665 108 812 370 l23 41 -44 0 c-41 0 -45
-3 -75 -49 -17 -26 -63 -78 -102 -114 -276 -261 -817 -263 -1081 -4 -44 43
-107 134 -98 141 2 1 33 8 68 15 77 15 155 49 199 86 31 26 34 27 52 10 18
-16 20 -17 26 -1 4 9 0 24 -9 34 -13 14 -14 24 -5 57 25 94 -59 158 -226 172
-52 4 -70 3 -77 -8 -15 -24 -11 -26 74 -31 117 -8 176 -41 177 -99 0 -38 -7
-39 -58 -16 -33 14 -76 22 -145 25 -54 3 -99 8 -102 11 -7 12 40 135 78 203
36 64 39 67 88 77 75 16 173 14 213 -6 20 -9 40 -29 47 -45 12 -31 32 -33 37
-4 6 29 -27 67 -81 92 -55 25 -114 30 -179 15 -43 -10 -46 -7 -21 23 10 12 4
9 -13 -7 -23 -21 -62 -35 -169 -62 -183 -46 -266 -46 -215 0 33 30 92 44 183
45 48 0 87 4 87 8 0 37 -137 44 -230 12z m385 -415 c66 -22 73 -30 49 -56 -33
-36 -99 -69 -170 -84 -61 -13 -70 -13 -80 1 -15 19 -27 117 -19 145 7 20 12
21 89 16 44 -3 104 -13 131 -22z m-261 -120 c8 -32 -5 -32 -43 1 -39 32 -40
66 -4 102 l28 27 6 -52 c4 -29 10 -64 13 -78z"/>
<path d="M4653 929 c4 -37 -23 -44 -115 -31 -46 7 -101 12 -121 12 -69 0 -127
-44 -127 -96 0 -24 25 -11 28 15 7 44 74 51 208 24 82 -17 84 -17 111 3 20 15
29 31 31 57 2 21 -1 37 -7 37 -6 0 -10 -9 -8 -21z"/>
<path d="M3584 825 c-75 -32 -90 -101 -28 -133 l35 -18 -21 -27 c-47 -59 -87
-58 -70 3 10 34 0 60 -22 60 -6 0 -31 -23 -58 -52 -61 -66 -80 -62 -80 19 0
33 7 71 15 87 19 37 14 51 -20 60 -45 11 -90 -20 -165 -115 -71 -90 -105 -117
-134 -106 -24 9 -19 45 14 116 31 65 30 86 -6 79 -10 -1 -42 -32 -72 -68 -87
-104 -113 -130 -129 -130 -13 0 -14 9 -9 50 9 70 -13 78 -62 21 -44 -49 -106
-78 -128 -60 -24 20 -17 57 15 73 41 22 91 83 91 112 0 59 -83 32 -130 -43
-89 -140 -11 -235 123 -147 28 18 37 21 37 10 0 -23 29 -46 57 -46 18 0 43 17
81 55 30 30 56 55 57 55 1 0 2 -18 1 -39 -1 -45 25 -81 59 -81 12 0 39 11 60
26 37 25 37 25 52 5 21 -31 49 -25 93 20 28 29 40 36 40 25 0 -9 11 -28 26
-42 30 -31 64 -27 106 13 26 25 26 25 37 4 29 -53 90 -44 148 23 18 20 35 36
38 36 3 0 5 -17 5 -38 0 -84 75 -94 149 -21 39 39 59 75 47 86 -3 3 -26 -17
-52 -46 -70 -78 -127 -66 -89 19 19 42 14 76 -10 66 -11 -4 -15 2 -15 27 0 58
-36 84 -86 62z m50 -38 c17 -12 17 -16 2 -50 -8 -20 -18 -37 -22 -37 -15 0
-54 44 -54 60 0 36 41 51 74 27z m-945 -43 c-31 -33 -36 -22 -8 17 13 19 25
27 27 20 2 -7 -6 -23 -19 -37z m621 29 c0 -16 -59 -109 -86 -138 -28 -30 -29
-30 -32 -7 -4 28 38 103 74 131 27 22 44 27 44 14z"/>
<path d="M5174 788 c-93 -82 -132 -218 -62 -218 12 0 38 18 60 41 40 42 39 42
54 -9 6 -19 51 -33 78 -23 28 11 96 88 96 110 0 9 -19 -4 -49 -33 -68 -67 -85
-60 -79 33 2 47 9 76 21 88 23 26 5 43 -45 43 -28 0 -47 -8 -74 -32z m66 -21
c0 -28 -92 -157 -112 -157 -17 0 -7 48 21 92 38 60 91 98 91 65z"/>
<path d="M3989 798 c-13 -11 -45 -111 -66 -205 -9 -40 13 -25 66 47 29 39 54
70 55 70 2 0 3 -24 2 -53 0 -33 4 -60 13 -70 15 -19 62 -22 91 -7 13 7 21 7
25 0 12 -19 23 -10 64 53 47 70 80 112 85 106 2 -2 -1 -37 -7 -77 -7 -51 -7
-76 1 -84 15 -15 27 -4 69 60 37 56 38 57 41 27 6 -57 22 -85 51 -85 15 0 37
7 50 16 17 12 26 13 34 5 18 -18 49 -13 78 15 l27 25 6 -34 c10 -56 73 -65
127 -20 21 18 34 24 37 15 6 -19 57 -14 77 8 23 25 35 25 35 1 0 -23 23 -33
56 -25 28 7 29 3 9 -35 -16 -32 -44 -43 -69 -29 -20 11 -46 4 -46 -12 0 -6 16
-18 35 -26 62 -25 108 12 122 101 3 19 3 42 -1 51 -6 15 -9 15 -29 -5 -49 -46
-50 -8 -2 85 27 51 32 70 24 80 -19 23 -26 17 -65 -48 -38 -65 -82 -118 -96
-118 -15 0 -8 45 12 83 25 46 25 57 1 57 -23 0 -45 -32 -62 -89 -14 -47 -61
-91 -97 -91 -32 0 -29 46 10 124 17 35 28 71 25 80 -12 29 -36 17 -61 -31 -35
-69 -84 -133 -101 -133 -23 0 -18 40 10 85 30 48 30 55 7 55 -26 0 -51 -31
-66 -81 -14 -46 -56 -87 -76 -74 -7 5 -11 30 -10 69 1 33 2 67 1 74 -2 26 -32
10 -68 -37 -21 -28 -41 -50 -44 -50 -3 -1 -2 20 2 47 4 26 8 57 8 70 1 40 -39
23 -83 -36 -21 -29 -40 -51 -42 -49 -2 2 3 24 11 50 8 25 10 49 6 51 -18 11
-42 -22 -56 -79 -19 -71 -33 -95 -68 -114 -60 -32 -75 22 -30 113 25 52 26 86
2 86 -6 0 -38 -28 -70 -62 -32 -35 -59 -60 -59 -57 0 3 7 27 16 53 18 51 10
76 -17 54z"/>
</g>
</svg>
