<?xml version="1.0" standalone="no"?>
<!DOCTYPE svg PUBLIC "-//W3C//DTD SVG 20010904//EN"
 "http://www.w3.org/TR/2001/REC-SVG-20010904/DTD/svg10.dtd">
<svg version="1.0" xmlns="http://www.w3.org/2000/svg"
 width="1351.000000pt" height="768.000000pt" viewBox="0 0 1351.000000 768.000000"
 preserveAspectRatio="xMidYMid meet">

<g transform="translate(0.000000,768.000000) scale(0.100000,-0.100000)"
fill="#ffffff" stroke="none">
<path d="M6465 7638 c-37 -45 -135 -232 -135 -258 0 -9 -4 -20 -10 -26 -9 -9
-38 -84 -64 -169 -7 -22 -20 -57 -29 -77 -10 -21 -17 -48 -17 -60 0 -13 -7
-33 -15 -45 -8 -12 -20 -45 -26 -75 -6 -29 -15 -58 -20 -64 -5 -5 -15 -37 -23
-70 -8 -32 -22 -77 -30 -99 -8 -22 -15 -50 -16 -63 0 -13 -6 -35 -14 -50 -8
-15 -19 -54 -25 -86 -6 -32 -15 -64 -20 -70 -5 -6 -15 -40 -21 -76 -6 -36 -16
-70 -21 -76 -5 -7 -15 -40 -21 -75 -6 -35 -15 -69 -20 -75 -5 -7 -15 -43 -23
-80 -18 -89 -44 -191 -57 -229 -6 -16 -16 -60 -23 -97 -7 -38 -18 -80 -24 -95
-6 -16 -17 -59 -25 -98 -8 -38 -22 -95 -30 -125 -9 -30 -16 -64 -16 -76 0 -12
-6 -37 -14 -55 -8 -19 -17 -54 -20 -79 -4 -25 -14 -68 -23 -96 -16 -50 -18
-52 -66 -63 -103 -24 -254 -34 -417 -28 -265 10 -460 56 -790 187 -30 12 -50
17 -45 12 19 -19 290 -120 400 -150 147 -39 198 -49 345 -67 156 -19 233 -19
385 0 163 20 165 20 165 -10 0 -14 -7 -42 -15 -62 -8 -19 -20 -65 -26 -102 -5
-36 -16 -84 -23 -106 -8 -22 -17 -65 -21 -95 -3 -30 -13 -69 -21 -86 -14 -31
-16 -32 -96 -38 -261 -21 -596 -104 -660 -165 -35 -34 -27 -82 22 -116 47 -33
80 -31 185 10 109 43 217 69 355 87 133 17 145 16 142 -7 -14 -106 -23 -158
-36 -205 -9 -30 -16 -70 -16 -90 0 -19 -9 -63 -20 -97 -10 -34 -22 -106 -26
-161 -7 -99 -6 -101 19 -126 16 -16 37 -26 56 -26 40 0 91 44 91 78 0 34 36
289 57 402 9 47 21 121 27 165 l11 80 100 3 c116 4 230 -10 369 -44 170 -43
277 -103 335 -189 28 -41 31 -54 31 -120 0 -41 -4 -76 -9 -80 -5 -3 -15 -22
-22 -43 -6 -20 -20 -45 -30 -55 -11 -10 -19 -21 -19 -25 0 -4 -28 -36 -61 -72
-51 -55 -100 -122 -157 -215 -31 -51 -36 -76 -37 -172 0 -90 3 -105 23 -132
12 -16 22 -33 22 -36 0 -24 113 -135 269 -265 23 -19 66 -59 96 -87 l54 -53
80 0 c46 0 83 5 87 11 7 12 -97 115 -237 233 -137 116 -204 203 -223 293 -5
21 1 54 18 103 26 72 39 90 192 270 69 82 100 136 130 229 29 90 29 102 4 181
-27 83 -49 118 -119 182 -145 133 -436 229 -768 253 -101 8 -103 9 -79 66 7
19 16 57 20 84 7 53 32 168 69 324 l23 93 69 23 c88 29 230 88 316 130 154 78
474 277 619 387 32 24 321 236 492 360 479 350 771 528 1143 698 122 56 318
127 400 145 l30 7 -25 -27 c-14 -15 -68 -55 -120 -90 -52 -35 -138 -94 -190
-131 -52 -37 -124 -88 -160 -112 -78 -54 -246 -182 -279 -213 -45 -42 -12
-111 82 -168 20 -12 35 -26 33 -30 -3 -4 -22 -13 -43 -19 -134 -39 -244 -77
-283 -97 -62 -32 -94 -68 -86 -97 7 -29 68 -72 144 -103 31 -13 56 -27 55 -31
-2 -11 -79 -35 -273 -84 -209 -53 -255 -68 -275 -89 -9 -10 -13 -25 -9 -35 9
-23 108 -68 252 -112 67 -21 122 -42 122 -45 0 -11 -131 -71 -230 -107 -121
-44 -330 -82 -448 -82 -145 0 -62 -79 163 -154 112 -37 131 -42 210 -61 39 -9
88 -20 110 -25 22 -5 68 -15 102 -21 35 -6 60 -15 58 -19 -8 -12 -222 -93
-470 -178 -28 -10 -28 -10 -6 -11 14 -1 38 3 55 9 17 5 78 21 136 35 154 39
351 102 378 121 41 29 18 38 -188 75 -158 28 -271 56 -365 92 -77 29 -145 66
-145 78 0 3 46 9 102 13 166 11 512 103 629 167 36 20 45 30 47 55 5 49 -33
67 -310 150 -32 9 -58 20 -58 24 0 4 39 17 88 29 101 25 243 63 322 86 30 9
69 20 86 24 58 15 146 60 142 73 -2 7 -44 27 -94 43 -145 49 -206 85 -173 105
8 5 59 23 114 40 274 85 390 126 390 138 0 7 -33 31 -73 53 -86 45 -152 95
-152 114 0 7 66 50 148 96 546 308 922 599 922 713 0 48 -15 56 -102 56 -261
0 -968 -312 -1510 -667 -123 -80 -494 -358 -588 -441 -14 -12 -63 -52 -110
-89 -47 -37 -94 -74 -104 -83 -11 -8 -35 -29 -55 -46 -125 -106 -436 -331
-579 -418 -178 -107 -435 -225 -447 -205 -3 5 1 29 10 54 8 25 15 53 15 61 0
17 42 199 62 269 6 22 19 76 29 120 10 44 27 116 38 160 11 44 29 116 40 160
10 44 31 123 45 175 15 52 33 126 42 164 8 38 18 74 21 80 6 9 19 56 58 216 9
36 21 73 26 83 5 9 16 43 24 75 14 57 36 130 57 187 5 17 15 48 20 70 6 22 19
60 29 85 10 25 21 64 24 87 4 23 13 47 20 53 8 6 17 26 21 43 3 18 12 40 19
51 23 32 32 -66 11 -123 -9 -26 -19 -78 -23 -116 -3 -39 -10 -79 -16 -90 -6
-11 -18 -56 -28 -100 -10 -44 -25 -109 -33 -145 -40 -168 -4 -215 140 -179 25
6 47 9 50 6 3 -2 -9 -29 -25 -58 -17 -30 -35 -65 -41 -79 -6 -14 -17 -37 -25
-52 -23 -41 -37 -130 -26 -162 9 -22 17 -26 48 -26 21 0 62 9 92 20 72 28 75
23 31 -45 -11 -16 -27 -43 -36 -60 -9 -16 -33 -51 -53 -77 -108 -142 -160
-223 -168 -259 -4 -22 -2 -29 11 -29 21 0 127 41 201 78 33 17 61 29 63 27 18
-18 -176 -202 -345 -329 -51 -38 -93 -71 -93 -73 0 -6 102 48 160 85 62 39
222 176 290 248 98 103 114 144 58 144 -37 0 -100 -20 -159 -50 -40 -21 -69
-26 -69 -12 0 4 19 35 43 68 23 33 47 67 52 76 6 9 44 67 85 129 96 145 98
148 114 184 18 38 3 44 -45 20 -51 -27 -139 -55 -171 -55 -24 0 -28 4 -28 29
0 43 44 123 132 241 43 57 77 111 76 120 -4 21 -66 25 -166 9 -45 -7 -84 -10
-87 -7 -7 6 1 39 48 203 73 259 96 381 104 563 5 114 -3 173 -34 235 -22 43
-63 37 -108 -15z"/>
<path d="M4310 5226 c0 -2 7 -7 16 -10 8 -3 12 -2 9 4 -6 10 -25 14 -25 6z"/>
<path d="M7260 4650 l-35 -7 32 -2 c17 0 35 4 38 9 3 6 5 9 3 9 -2 -1 -19 -5
-38 -9z"/>
<path d="M7158 4623 c7 -3 16 -2 19 1 4 3 -2 6 -13 5 -11 0 -14 -3 -6 -6z"/>
<path d="M3835 3101 c-251 -62 -365 -236 -194 -296 87 -31 280 -7 479 58 25 8
60 18 78 22 32 7 34 6 27 -16 -5 -13 -13 -28 -20 -34 -11 -9 -21 -24 -67 -94
-10 -14 -33 -60 -53 -101 -20 -41 -43 -87 -50 -101 -8 -14 -17 -46 -20 -70
-10 -66 -23 -86 -74 -105 -64 -24 -141 -73 -141 -89 0 -8 -8 -18 -17 -24 -14
-7 -18 -26 -21 -88 -3 -74 -2 -80 28 -120 35 -48 102 -84 194 -104 54 -12 61
-17 85 -57 121 -205 250 -336 446 -453 260 -156 499 -232 821 -259 281 -24
585 31 833 152 168 81 264 150 401 288 76 77 102 108 190 239 32 48 61 104 56
109 -3 2 -26 4 -53 4 -104 1 -109 -1 -124 -30 -92 -180 -340 -404 -559 -504
-206 -94 -495 -158 -715 -158 -113 0 -349 36 -486 73 -193 54 -405 171 -540
298 -54 51 -159 188 -159 207 0 5 -9 21 -20 35 -20 25 -20 26 -3 35 10 5 52
14 93 21 159 26 304 87 408 171 l63 50 34 -26 c40 -30 55 -25 55 20 0 22 -8
39 -24 54 -26 22 -26 32 3 105 16 41 13 76 -9 125 -36 78 -126 135 -283 177
-163 44 -307 32 -307 -25 0 -26 26 -32 158 -35 156 -3 236 -28 298 -92 38 -39
44 -51 44 -87 0 -23 -6 -50 -13 -59 -11 -16 -15 -16 -62 6 -94 46 -273 77
-439 77 l-78 0 5 33 c8 48 38 160 48 177 5 8 29 56 53 105 51 102 110 196 128
206 25 14 166 38 258 45 173 12 277 -26 327 -119 37 -68 57 -69 61 -2 4 67
-29 112 -118 159 -108 56 -191 67 -352 42 l-88 -13 6 24 c8 30 3 29 -34 -6
-17 -17 -48 -34 -69 -40 -74 -20 -309 -80 -378 -97 -73 -18 -267 -25 -281 -11
-15 15 21 61 66 84 25 12 83 32 130 44 72 18 101 20 185 14 134 -9 145 -9 158
4 17 17 -3 44 -44 58 -52 18 -242 15 -324 -6z m585 -794 c72 -17 197 -64 205
-78 16 -25 -99 -123 -190 -164 -83 -37 -278 -81 -309 -69 -22 9 -34 62 -42
191 -9 151 -15 146 145 140 69 -2 155 -11 191 -20z m-440 -89 c1 -40 7 -91 15
-113 18 -50 19 -95 3 -95 -26 1 -93 47 -115 79 -26 39 -29 80 -9 119 21 41 66
78 99 81 4 1 7 -32 7 -71z"/>
<path d="M4445 3099 c-11 -17 1 -21 15 -4 8 9 8 15 2 15 -6 0 -14 -5 -17 -11z"/>
<path d="M8838 2763 c-3 -41 -7 -50 -31 -61 -24 -12 -44 -11 -135 4 -59 9
-165 19 -235 21 -122 4 -131 3 -181 -21 -67 -33 -97 -74 -99 -134 -2 -57 23
-67 34 -13 18 86 107 115 272 89 56 -9 125 -21 152 -27 158 -34 202 -21 248
69 33 66 33 113 0 118 -20 3 -22 -2 -25 -45z"/>
<path d="M6779 2565 c-25 -13 -60 -40 -77 -60 -26 -29 -32 -44 -32 -83 0 -41
5 -53 33 -79 17 -17 47 -34 64 -38 18 -3 35 -10 38 -15 8 -12 -82 -118 -115
-135 -71 -37 -80 -9 -44 137 5 21 1 30 -20 44 -37 23 -62 10 -123 -64 -64 -77
-111 -114 -143 -110 l-25 3 0 132 0 131 34 43 34 42 -31 29 c-27 23 -41 28
-83 28 -79 0 -147 -44 -221 -142 -9 -13 -40 -52 -67 -88 -28 -36 -58 -76 -68
-88 -22 -29 -79 -84 -100 -95 -62 -36 -113 -20 -113 36 0 61 48 192 87 239 9
9 13 32 11 55 -3 35 -6 38 -36 41 -36 4 -46 -5 -154 -133 -32 -38 -64 -77 -71
-85 -7 -8 -20 -27 -29 -41 -48 -76 -143 -147 -166 -124 -10 10 -5 90 8 131 10
30 9 38 -6 55 -31 34 -59 24 -101 -37 -80 -118 -267 -188 -287 -108 -13 52 2
88 48 113 66 34 160 133 175 180 12 42 4 75 -23 93 -55 37 -189 -57 -248 -174
-50 -102 -59 -160 -34 -232 19 -56 50 -76 117 -76 63 0 104 14 183 65 l54 34
16 -24 c9 -13 16 -31 16 -38 0 -21 24 -37 63 -44 51 -8 116 27 174 93 77 88
110 124 114 124 2 0 3 -31 1 -68 -3 -56 0 -75 18 -105 28 -47 47 -57 105 -57
53 0 91 17 145 67 36 31 40 33 46 17 19 -60 23 -64 64 -64 23 0 51 5 63 11 26
14 87 70 87 81 0 4 11 18 25 32 l25 25 6 -27 c17 -77 62 -122 123 -122 46 0
77 16 130 65 52 48 62 47 76 -6 3 -14 19 -33 35 -42 67 -40 144 -9 245 99 l70
74 0 -62 c1 -63 18 -106 54 -135 21 -18 101 -16 145 2 65 27 196 178 196 225
0 40 -21 27 -89 -53 -91 -110 -172 -149 -208 -101 -18 24 -11 60 22 127 16 30
25 63 23 81 -3 28 -7 31 -40 34 l-38 3 0 64 c0 54 -4 68 -26 94 -21 26 -33 31
-67 31 -24 -1 -62 -11 -88 -25z m111 -60 c19 -10 30 -23 30 -37 0 -32 -49
-128 -65 -128 -46 0 -105 63 -105 112 0 56 78 85 140 53z m-1764 -21 c-3 -9
-6 -20 -6 -25 0 -13 -76 -89 -88 -89 -15 0 -2 40 20 64 60 66 87 85 74 50z
m1144 -13 c0 -10 -29 -73 -57 -126 -23 -44 -120 -163 -143 -175 -39 -21 -47
52 -12 110 60 99 101 149 151 182 28 19 61 24 61 9z"/>
<path d="M9902 2545 c-63 -36 -88 -58 -131 -112 -57 -73 -97 -151 -111 -219
-10 -53 -10 -65 4 -92 14 -28 22 -32 55 -32 28 0 49 8 73 28 18 15 34 30 36
33 10 21 80 90 84 83 3 -5 8 -25 12 -44 3 -20 19 -50 35 -68 25 -26 37 -32 72
-32 73 0 137 48 207 155 67 103 30 101 -66 -4 -68 -75 -98 -96 -119 -82 -52
34 -38 279 18 322 27 20 19 49 -20 72 -41 24 -98 21 -149 -8z m68 -77 c0 -7
-13 -38 -28 -68 -77 -153 -190 -274 -209 -224 -9 23 18 106 50 149 15 22 36
52 44 66 33 53 144 112 143 77z"/>
<path d="M7590 2528 c-43 -16 -58 -38 -65 -91 -7 -56 -47 -198 -73 -261 -17
-41 -19 -73 -4 -88 10 -10 62 27 62 44 0 5 9 22 20 36 164 212 155 208 155 70
l0 -110 30 -24 c37 -30 102 -32 162 -5 36 17 43 17 54 5 20 -24 36 -16 73 39
19 28 54 77 76 107 22 30 48 66 57 80 9 14 30 40 47 58 27 28 31 30 37 15 3
-10 0 -33 -8 -52 -9 -21 -15 -75 -16 -145 l-2 -111 26 -3 c30 -3 55 25 108
123 18 33 43 68 56 77 l22 17 6 -60 c13 -120 67 -176 142 -145 20 9 50 27 66
40 l29 25 29 -30 c45 -44 74 -38 148 33 l41 41 7 -46 c4 -28 17 -56 35 -76 24
-26 36 -31 75 -31 57 0 106 20 161 65 41 34 44 34 53 16 13 -24 52 -34 85 -21
14 5 46 28 71 51 l44 41 6 -29 c17 -76 45 -93 115 -69 l41 14 -6 -31 c-19 -92
-98 -141 -165 -102 -33 19 -56 19 -64 0 -11 -29 12 -62 53 -79 93 -36 158 -8
204 88 42 87 53 226 19 226 -5 0 -28 -18 -51 -40 -56 -54 -65 -52 -58 13 4 38
22 86 66 171 63 123 67 146 22 161 -30 9 -52 -5 -72 -49 -18 -40 -37 -73 -70
-126 -9 -14 -29 -45 -44 -70 -29 -45 -69 -85 -99 -96 -22 -9 -31 39 -16 89 7
23 28 69 47 101 37 64 37 86 0 86 -51 0 -101 -69 -132 -181 -27 -100 -152
-193 -214 -160 -12 7 -21 21 -21 34 0 38 37 138 84 230 26 52 42 95 39 105
-19 54 -66 59 -89 10 -9 -18 -26 -51 -39 -73 -14 -22 -32 -54 -42 -71 -58
-101 -125 -177 -152 -172 -11 2 -17 16 -19 41 -3 37 19 95 62 159 41 62 -9
106 -60 51 -31 -33 -84 -146 -84 -178 0 -14 -16 -37 -39 -58 -82 -74 -118 -58
-112 51 3 37 5 96 5 132 1 64 1 65 -28 68 -20 3 -36 -4 -57 -24 -16 -15 -29
-34 -29 -41 0 -7 -4 -13 -9 -13 -5 0 -28 -26 -51 -57 -41 -53 -44 -55 -52 -33
-5 13 -4 27 1 34 12 15 35 182 27 201 -3 9 -18 15 -38 15 -30 0 -41 -10 -113
-101 -43 -55 -82 -102 -86 -105 -4 -2 -3 11 2 29 4 17 13 50 18 72 17 64 14
95 -8 95 -35 0 -61 -32 -71 -90 -5 -30 -16 -73 -24 -95 -8 -22 -15 -50 -16
-63 -1 -50 -114 -142 -175 -142 -64 0 -60 101 9 239 47 94 55 128 34 149 -25
25 -55 12 -109 -49 -69 -79 -151 -160 -156 -155 -5 5 17 95 33 133 15 34 18
69 7 76 -5 3 -19 0 -33 -5z"/>
<path d="M8910 841 c0 -12 20 -27 46 -35 14 -4 30 0 45 13 30 24 18 39 -16 21
-20 -10 -28 -11 -37 -2 -14 14 -38 16 -38 3z"/>
<path d="M3767 784 c-4 -4 -7 -55 -7 -114 0 -92 -3 -111 -20 -133 -23 -29 -26
-67 -6 -67 8 0 24 9 37 19 22 18 24 29 29 133 l5 113 28 3 27 3 0 -129 c0
-109 3 -131 16 -136 44 -17 45 -14 42 152 l-3 157 -70 3 c-39 1 -74 0 -78 -4z"/>
<path d="M3987 783 c-4 -3 -7 -75 -7 -160 l0 -153 25 0 c28 0 45 25 45 68 0
16 7 36 17 43 9 8 23 30 31 49 15 34 15 35 22 10 3 -14 2 -46 -3 -72 -13 -64
-3 -100 26 -96 22 3 22 5 19 153 -1 84 -7 154 -12 159 -18 18 -44 -9 -52 -54
-4 -24 -14 -50 -23 -60 -8 -9 -20 -32 -27 -51 l-12 -34 -8 30 c-5 17 -6 59 -2
94 4 48 3 66 -8 72 -16 11 -23 11 -31 2z"/>
<path d="M4224 775 c-7 -18 3 -35 20 -35 20 0 26 -34 26 -157 0 -106 1 -113
20 -113 19 0 20 7 20 131 l0 130 30 10 c32 12 40 33 14 43 -33 12 -124 7 -130
-9z"/>
<path d="M4433 773 c-4 -10 -8 -81 -8 -158 l0 -140 63 -3 c61 -3 62 -2 62 23
0 23 -4 25 -40 25 l-40 0 0 45 c0 44 0 45 34 45 43 0 57 26 20 40 -14 6 -32
10 -40 10 -10 0 -14 12 -14 39 0 39 1 40 38 43 29 2 37 7 37 23 0 17 -8 20
-53 23 -43 3 -54 0 -59 -15z"/>
<path d="M4617 783 c-4 -3 -7 -75 -7 -160 0 -146 1 -153 20 -153 11 0 21 6 22
13 0 6 2 17 3 22 2 6 3 27 4 47 1 32 5 37 31 43 54 12 80 41 80 90 0 57 -7 73
-41 90 -29 15 -100 20 -112 8z m101 -55 c7 -7 12 -24 12 -39 0 -56 -70 -69
-81 -14 -3 17 -2 38 3 48 10 20 48 23 66 5z"/>
<path d="M4864 782 c-17 -10 -41 -87 -49 -157 -5 -33 -14 -74 -21 -92 -19 -44
-17 -63 4 -63 23 0 42 19 42 41 0 46 63 48 75 1 7 -28 21 -42 43 -42 16 0 16
54 -2 93 -8 18 -17 61 -20 97 -8 97 -37 146 -72 122z m30 -103 c3 -17 6 -47 6
-65 0 -27 -4 -34 -19 -34 -29 0 -34 15 -21 75 13 62 24 70 34 24z"/>
<path d="M4987 783 c-14 -14 -6 -34 18 -43 25 -9 25 -10 25 -140 0 -117 2
-130 18 -130 37 0 41 13 41 125 0 61 0 116 1 123 0 7 11 17 25 22 15 6 25 17
25 30 0 18 -6 20 -73 20 -41 0 -77 -3 -80 -7z"/>
<path d="M5193 775 c-8 -23 5 -91 27 -141 28 -60 26 -100 -5 -120 -44 -29 -24
-68 22 -43 32 17 72 104 80 172 3 29 11 59 19 67 16 19 22 72 9 77 -25 8 -46
-25 -59 -92 -14 -73 -15 -73 -41 15 -10 30 -19 61 -21 68 -5 17 -23 15 -31 -3z"/>
<path d="M5414 783 c-12 -9 -27 -273 -18 -298 4 -8 15 -15 25 -15 16 0 19 7
19 44 0 62 7 75 46 82 70 13 100 114 49 163 -26 24 -100 39 -121 24z m86 -64
c15 -28 5 -66 -21 -80 -17 -9 -23 -8 -30 2 -10 17 -12 83 -2 92 13 14 43 6 53
-14z"/>
<path d="M5624 784 c-9 -4 -11 -191 -4 -306 0 -5 9 -8 20 -8 18 0 20 7 20 64
0 69 7 78 53 69 24 -5 26 -9 29 -66 2 -50 6 -62 21 -65 16 -3 17 8 15 155 -3
133 -5 158 -18 158 -11 0 -16 -16 -20 -65 l-5 -65 -35 0 -35 0 -5 64 c-5 62
-12 75 -36 65z"/>
<path d="M5901 776 c-53 -29 -78 -174 -42 -244 51 -100 153 -77 172 38 25 151
-41 255 -130 206z m73 -83 c20 -59 20 -82 0 -133 -18 -44 -46 -53 -64 -21 -13
25 -13 141 0 175 16 43 46 33 64 -21z"/>
<path d="M6384 779 c-6 -11 -13 -66 -30 -241 l-7 -68 27 0 c24 0 26 3 27 48 0
26 4 70 8 97 l7 50 7 -36 c4 -21 14 -42 22 -49 9 -8 15 -30 15 -56 0 -37 3
-44 20 -44 16 0 20 7 20 38 0 20 9 51 20 67 11 17 20 39 20 49 0 11 3 17 6 14
3 -3 8 -43 12 -89 6 -75 9 -84 27 -84 23 0 24 22 10 203 -8 107 -19 128 -50
102 -15 -13 -24 -41 -46 -149 -11 -56 -14 -61 -21 -40 -5 13 -16 57 -24 98 -8
41 -19 80 -25 88 -14 16 -35 17 -45 2z"/>
<path d="M6636 782 c-3 -5 3 -22 13 -38 10 -16 21 -49 25 -73 3 -24 13 -56 21
-72 20 -38 19 -62 -5 -77 -20 -12 -27 -46 -11 -56 5 -3 20 3 34 14 26 21 70
138 83 220 4 25 11 53 15 62 7 12 4 18 -11 23 -30 10 -40 -2 -40 -49 0 -24 -6
-58 -13 -75 l-13 -32 -12 26 c-7 14 -12 34 -12 43 0 9 -5 34 -11 55 -8 29 -15
37 -34 37 -13 0 -26 -4 -29 -8z"/>
<path d="M6878 779 c-27 -15 -22 -26 17 -33 59 -11 67 -58 15 -88 -32 -18 -32
-48 0 -48 21 0 50 -31 50 -53 0 -26 -45 -50 -81 -43 -27 5 -30 3 -27 -17 5
-38 98 -37 138 3 29 29 26 84 -6 117 l-25 25 20 22 c12 13 21 36 21 53 0 55
-72 91 -122 62z"/>
<path d="M7060 629 l0 -162 61 6 c83 7 99 24 99 99 0 55 -2 59 -32 78 -18 11
-41 20 -50 20 -14 0 -18 11 -20 58 -3 54 -4 57 -30 60 l-28 3 0 -162z m116
-34 c9 -37 -3 -73 -27 -80 -28 -9 -39 8 -39 63 0 40 1 42 30 42 23 0 31 -5 36
-25z"/>
<path d="M7270 630 c0 -133 2 -160 14 -160 8 0 17 4 21 9 3 6 7 75 9 155 3
148 2 156 -35 156 -5 0 -9 -70 -9 -160z"/>
<path d="M7397 784 c-4 -4 -7 -76 -7 -161 0 -145 1 -153 20 -153 16 0 19 8 22
62 2 50 6 63 20 66 11 2 21 -5 27 -20 40 -98 46 -108 63 -108 16 0 17 6 12 43
-4 23 -17 61 -30 84 -30 53 -30 59 6 127 26 48 28 57 15 62 -23 9 -52 -22 -70
-77 -27 -81 -34 -74 -47 50 -3 25 -19 37 -31 25z"/>
<path d="M7655 778 c-2 -7 -9 -35 -14 -63 -6 -27 -17 -81 -26 -119 -18 -80
-17 -121 4 -121 8 0 18 14 23 31 16 63 88 51 88 -14 0 -17 5 -22 18 -20 15 3
17 14 14 78 -1 41 -9 95 -17 120 -8 25 -17 62 -20 83 -5 33 -9 37 -36 37 -16
0 -32 -6 -34 -12z m64 -181 c-7 -13 -16 -16 -32 -11 -31 10 -37 23 -21 53 8
14 14 37 15 51 0 20 5 15 24 -25 17 -36 21 -54 14 -68z"/>
<path d="M7857 783 c-4 -3 -7 -59 -7 -124 0 -108 -2 -119 -21 -133 -21 -14
-23 -46 -4 -53 6 -2 22 8 38 22 25 24 27 31 27 113 0 112 6 132 36 132 l24 0
0 -129 c0 -124 1 -129 22 -134 12 -3 25 -4 30 -1 4 3 8 75 8 160 l0 154 -73 0
c-41 0 -77 -3 -80 -7z"/>
<path d="M8074 777 c-2 -7 -3 -78 -2 -157 l3 -145 50 -3 c89 -4 122 34 110
126 -5 33 -12 45 -35 57 -16 8 -38 15 -50 15 -18 0 -20 6 -20 60 0 58 -1 60
-25 60 -14 0 -28 -6 -31 -13z m117 -184 c13 -35 -7 -78 -36 -78 -17 0 -20 8
-23 53 -3 50 -2 52 23 52 19 0 28 -7 36 -27z"/>
<path d="M8311 776 c-9 -11 -11 -33 -7 -73 9 -79 11 -163 6 -192 -3 -15 1 -27
13 -35 25 -16 37 7 37 72 0 59 10 69 55 52 26 -10 27 -13 21 -57 -6 -47 4 -73
30 -73 11 0 14 31 14 161 0 147 -1 160 -17 157 -14 -2 -19 -16 -23 -60 -6 -65
-6 -66 -48 -74 l-31 -6 -3 68 c-2 53 -7 69 -19 72 -9 1 -21 -4 -28 -12z"/>
<path d="M8551 773 c-5 -10 -9 -78 -9 -151 0 -118 2 -134 19 -142 42 -23 127
-4 136 30 3 11 9 20 13 20 17 0 21 52 5 69 -8 10 -15 23 -15 29 0 14 -52 42
-80 42 -18 0 -20 6 -20 60 0 53 -2 60 -20 60 -10 0 -23 -8 -29 -17z m107 -187
c6 -49 -6 -78 -31 -74 -18 2 -23 11 -25 42 -4 52 3 68 30 64 17 -2 24 -11 26
-32z"/>
<path d="M8754 777 c-2 -7 -3 -78 -2 -157 l3 -145 28 -3 27 -3 0 160 0 161
-25 0 c-14 0 -28 -6 -31 -13z"/>
<path d="M8877 784 c-4 -4 -7 -76 -7 -161 l0 -153 24 0 c32 0 47 20 53 72 3
24 11 48 19 54 7 6 19 24 26 40 12 27 13 21 16 -69 3 -95 3 -98 25 -95 21 3
22 7 24 145 2 118 -1 145 -14 158 -21 21 -36 14 -47 -21 -5 -16 -24 -60 -42
-99 l-32 -70 -6 55 c-3 30 -7 75 -9 99 -2 42 -15 60 -30 45z"/>
<path d="M9289 780 c-15 -8 -17 -30 -15 -157 1 -145 1 -148 24 -151 21 -3 22
0 22 58 0 47 4 62 16 67 22 8 44 -22 44 -61 0 -38 9 -51 37 -58 31 -8 37 6 19
43 -9 17 -18 46 -22 64 -3 19 -12 36 -20 39 -18 7 -18 40 1 56 8 7 15 19 15
27 0 8 9 28 21 44 17 25 18 30 5 35 -32 12 -51 -1 -61 -42 -5 -23 -15 -47 -21
-55 -6 -8 -14 -21 -16 -29 -3 -8 -9 18 -13 58 -8 75 -9 78 -36 62z"/>
<path d="M9517 784 c-4 -4 -7 -56 -7 -116 0 -103 -8 -143 -33 -159 -14 -10 1
-29 22 -29 35 0 48 40 60 180 6 69 8 75 30 78 13 2 28 -2 32 -10 5 -7 9 -68 9
-135 0 -117 1 -123 20 -123 20 0 20 5 18 158 l-3 157 -70 3 c-39 1 -74 0 -78
-4z"/>
<path d="M9714 775 c-3 -8 3 -34 14 -57 11 -24 23 -59 27 -78 4 -19 14 -45 22
-58 13 -21 13 -26 -2 -48 -8 -13 -22 -24 -31 -24 -10 0 -14 -7 -12 -22 5 -34
25 -33 62 4 26 26 36 46 42 84 4 27 13 59 21 70 20 32 23 139 3 139 -11 0 -16
-13 -18 -48 -2 -27 -11 -62 -22 -79 l-18 -30 -11 52 c-19 89 -60 140 -77 95z"/>
<path d="M9930 629 l0 -162 62 6 c52 5 67 10 87 33 20 24 23 35 18 77 -7 56
-24 74 -80 83 -44 8 -51 16 -43 49 5 20 13 24 54 27 40 3 47 6 50 26 3 21 0
22 -72 22 l-76 0 0 -161z m114 -25 c13 -33 6 -64 -19 -80 -20 -13 -28 -14 -40
-4 -15 12 -21 81 -8 93 13 13 61 7 67 -9z"/>
<path d="M6161 607 c-15 -19 -4 -27 41 -27 31 0 38 3 38 20 0 16 -7 20 -34 20
-18 0 -39 -6 -45 -13z"/>
</g>
</svg>
